<svg xmlns="http://www.w3.org/2000/svg" viewBox="110 130 800 390">
  <g transform="matrix(7.0997 0 0 7.0997 512 326.2954)">
    <g transform="matrix(1 0 0 1 -11.34 0)">
      <path fill="white" transform="translate(-100.828,-95.9747)" d="M 57.736 121.1747 L 71.992 121.1747 L 71.992 101.5187 L 88.984 101.5187 L 95.824 90.4307 L 57.736 90.4307 Z M 137.08 81.7907 L 143.92 70.7747 L 57.736 70.7747 L 57.736 81.7907 Z M 137.08 100.9427 L 137.08 90.2867 L 103.96 90.2867 L 103.96 100.9427 Z M 143.92 121.1747 L 143.92 110.1587 L 103.96 110.1587 L 103.96 121.1747 Z"/>
    </g>
    <g transform="matrix(1 0 0 1 47.304 0)">
      <path fill="white" transform="translate(-99.964,-95.9747)" d="M 92.836 70.7747 L 92.836 121.1747 L 107.092 121.1747 L 107.092 70.7747 Z"/>
    </g>
  </g>
</svg>
